<svg xmlns="http://www.w3.org/2000/svg" xmlns:xlink="http://www.w3.org/1999/xlink" width="500" zoomAndPan="magnify" viewBox="0 0 375 374.999991" height="500" preserveAspectRatio="xMidYMid meet" version="1.0"><path fill="#ff9b9b" d="M 104 295.765625 L 178.058594 369.820312 C 183.191406 374.957031 191.640625 374.957031 196.777344 369.820312 L 271 295.765625 C 276.132812 290.628906 276.132812 282.179688 271 277.042969 C 265.863281 271.910156 257.414062 271.910156 252.277344 277.042969 L 200.753906 328.570312 L 200.753906 13.292969 C 200.753906 6.003906 194.789062 0.0390625 187.5 0.0390625 C 180.210938 0.0390625 174.246094 6.003906 174.246094 13.292969 L 174.246094 328.402344 L 122.722656 276.878906 C 120.070312 274.226562 116.757812 273.066406 113.277344 273.066406 C 109.800781 273.066406 106.484375 274.394531 103.835938 276.878906 C 98.863281 282.179688 98.863281 290.628906 104 295.765625 Z M 104 295.765625 " fill-opacity="1" fill-rule="nonzero"/></svg>